<svg xmlns="http://www.w3.org/2000/svg" width="32" height="32"><path d="M15.796 1.49c-7.98 0-14.45 6.594-14.45 14.727 0 6.506 4.14 12.024 9.883 13.972.722.134.985-.32.985-.71 0-.35-.012-1.277-.02-2.505C8.176 27.865 7.33 25 7.33 25c-.658-1.7-1.605-2.153-1.605-2.153-1.312-.914.1-.896.1-.896 1.45.107 2.213 1.52 2.213 1.52 1.29 2.25 3.382 1.6 4.206 1.223.13-.952.504-1.6.917-1.97-3.21-.37-6.584-1.634-6.584-7.277 0-1.607.564-2.92 1.488-3.95-.15-.373-.645-1.87.14-3.898 0 0 1.215-.396 3.976 1.51 1.152-.326 2.39-.49 3.617-.495 1.227 0 2.464.17 3.618.495 2.76-1.906 3.97-1.51 3.97-1.51.79 2.028.293 3.525.144 3.897.925 1.03 1.485 2.344 1.485 3.95 0 5.658-3.38 6.903-6.6 7.268.52.454.982 1.353.982 2.727 0 1.968-.017 3.556-.017 4.04 0 .393.26.85.993.707 5.738-1.95 9.875-7.466 9.875-13.97 0-8.133-6.47-14.726-14.452-14.726" fill="#1b1817" fill-rule="evenodd"/></svg>