<svg xmlns="http://www.w3.org/2000/svg" width="93.582" height="26"><g><path d="M13.974 13.778c0-.28-.142-.54-.376-.68L7.363 9.366c-.105-.064-.223-.097-.343-.102h-.064c-.12.005-.238.038-.345.103l-6.233 3.73c-.232.14-.377.4-.377.68l.014 10.05c0 .14.07.27.188.337.115.072.26.072.374 0l3.705-2.206c.235-.145.378-.4.378-.68v-4.694c0-.28.142-.54.376-.678l1.577-.945c.12-.07.247-.104.38-.104.127 0 .26.034.373.105l1.577.946c.234.14.377.398.377.678v4.694c0 .28.145.537.377.68l3.704 2.206c.117.072.262.072.377 0 .115-.068.187-.198.187-.338l.012-10.048" fill="#2e2d2d" fill-rule="evenodd"/><path d="M46.686 19.01c0 .07-.036.135-.095.17l-2.14 1.283c-.058.035-.13.035-.188 0l-2.14-1.284c-.06-.035-.096-.1-.096-.17v-2.57c0-.07.036-.136.094-.17l2.142-1.287c.058-.035.13-.035.188 0l2.142 1.286c.058.034.094.1.094.17v2.57zm887.604 96.368c-.117-.067-.26-.066-.375.005-.115.07-.185.2-.185.337v9.95c0 .098-.05.19-.132.238-.082.05-.182.05-.264 0l-1.56-.936c-.234-.14-.52-.14-.754 0l-6.237 3.744c-.233.14-.376.4-.376.678v7.488c0 .28.143.54.376.68l6.237 3.745c.233.14.52.14.753 0l6.238-3.746c.234-.14.377-.398.377-.678v-18.666c0-.284-.148-.545-.386-.684l-3.71-2.154" fill="#2e2d2d" fill-rule="evenodd"/><path d="M69.578 16.37c.23-.14.374-.397.374-.676V13.88c0-.28-.143-.538-.375-.678L63.38 9.46c-.233-.14-.52-.14-.755 0l-6.234 3.743c-.232.14-.376.398-.376.678v7.487c0 .28.146.54.38.68l6.197 3.672c.23.135.51.136.74.003l3.747-2.166c.12-.07.193-.198.194-.34.002-.14-.07-.272-.188-.342l-6.274-3.745c-.118-.07-.19-.2-.19-.34v-2.346c0-.14.072-.27.189-.34l1.952-1.17c.116-.07.26-.07.375 0l1.954 1.17c.115.07.187.2.187.34v1.846c0 .14.073.27.19.34.116.07.26.07.376 0l3.735-2.26" fill="#2e2d2d" fill-rule="evenodd"/><path d="M25.315 9.42c.233-.14.52-.14.753 0l6.236 3.742c.233.14.377.4.377.68v7.49c0 .28-.143.538-.376.678l-6.236 3.746c-.233.14-.52.14-.753 0L19.08 22.01c-.233-.14-.376-.398-.376-.678v-7.49c0-.28.143-.54.376-.68l6.235-3.742" fill="#72c42d" fill-rule="evenodd"/><path d="M81.686 25.863c-.216 0-.43-.06-.617-.172l-1.964-1.207c-.293-.17-.15-.23-.054-.266.392-.14.47-.174.888-.42.044-.025.1-.016.146.012l1.508.93c.055.032.132.032.183 0l5.88-3.53c.055-.032.09-.098.09-.165v-7.058c0-.07-.035-.133-.09-.168l-5.88-3.528c-.054-.033-.126-.033-.18 0L75.72 13.82c-.057.034-.093.1-.093.167v7.058c0 .067.036.13.092.163l1.61.968c.874.455 1.41-.08 1.41-.618v-6.97c0-.097.076-.175.17-.175h.746c.093 0 .17.078.17.176v6.968c0 1.213-.635 1.908-1.74 1.908-.34 0-.608 0-1.355-.382l-1.54-.924c-.382-.23-.618-.657-.618-1.115v-7.058c0-.458.236-.886.617-1.115l5.88-3.533c.37-.22.866-.22 1.235 0l5.88 3.532c.38.23.617.657.617 1.115v7.058c0 .458-.237.885-.618 1.115l-5.88 3.53c-.188.114-.4.173-.62.173" fill="#72c42d"/><path d="M83.502 21c-2.573 0-3.112-1.228-3.112-2.258 0-.098.076-.176.17-.176h.76c.085 0 .156.063.17.15.114.804.456 1.21 2.012 1.21 1.24 0 1.766-.29 1.766-.974 0-.395-.15-.687-2.074-.883-1.61-.167-2.604-.536-2.604-1.875 0-1.234 1-1.97 2.676-1.97 1.884 0 2.816.68 2.934 2.14.005.05-.012.098-.044.135-.033.035-.078.057-.125.057h-.762c-.08 0-.15-.06-.165-.138-.183-.848-.63-1.12-1.837-1.12-1.352 0-1.51.49-1.51.858 0 .445.186.574 2.012.826 1.807.248 2.666.6 2.666 1.92 0 1.333-1.07 2.096-2.932 2.096" fill="#72c42d"/><path d="M62.91 16.02c.046-.026.1-.026.146 0l1.197.72c.044.026.07.075.07.13l.002 1.436c0 .054-.028.103-.073.13l-1.196.718c-.045.027-.1.027-.145 0l-1.195-.718c-.045-.027-.072-.076-.072-.13V16.87c0-.055.027-.104.072-.13l1.196-.72" fill="#72c42d" fill-rule="evenodd"/><path d="M91.553 11.17h.198c.162 0 .193-.12.193-.187 0-.18-.12-.18-.186-.18h-.204v.366zm1739.267 273.453h.438c.15 0 .444 0 .444.35 0 .243-.15.293-.24.324.174.012.185.13.21.3.012.105.03.286.065.348h-.27c-.006-.062-.048-.4-.048-.417-.018-.075-.043-.113-.132-.113h-.222v.53h-.246v-1.322zm-5.084 12.39c0 .55.425.992.947.992.528 0 .954-.453.954-.992 0-.55-.432-.985-.954-.985-.516 0-.948.43-.948.985zm-7.883-13.307c0 .65-.51 1.18-1.133 1.18-.618 0-1.133-.525-1.133-1.18 0-.667.528-1.18 1.134-1.18.612 0 1.133.513 1.133 1.18" fill="#72c42d"/></g></svg>