<svg xmlns="http://www.w3.org/2000/svg" width="32" height="32" viewBox="0 0 32 32" enable-background="new 0 0 50 50"><path d="M6.692 29.145c-1.622-.33-3.658-1.08-5.044-1.857L.53 26.662l1.168-.01c2.42-.017 4.924-.833 6.842-2.227l1.087-.79-1.066-.233c-1.913-.418-3.643-1.758-4.49-3.478l-.363-.736 1.3-.117c1.37-.122 1.72-.256 1.18-.453-1.948-.714-3.206-1.773-4-3.37-.458-.918-.937-2.97-.692-2.962.036 0 .446.125.91.276.465.152 1.07.275 1.345.275h.5l-.88-.917c-.493-.514-1.082-1.382-1.343-1.98-.405-.923-.465-1.29-.462-2.81.002-1.257.087-1.95.302-2.465l.298-.715L3.583 5.4c3.137 3.215 6.61 4.93 11.066 5.467l.704.085.006-1.498c.007-2.01.466-3.285 1.69-4.7 1.327-1.535 2.6-2.13 4.547-2.123 1.224.005 1.63.088 2.494.512.568.28 1.268.75 1.556 1.05l.524.54.957-.265c.526-.147 1.394-.474 1.927-.727.533-.252.97-.397.97-.32 0 .356-1.06 1.86-1.82 2.585l-.846.806.774-.122c.426-.068 1.147-.254 1.602-.413.455-.16.877-.238.936-.174.06.065-.526.785-1.3 1.6-1.365 1.436-1.41 1.51-1.41 2.342-.003 1.493-.49 4.41-1.025 6.115-.98 3.135-2.315 5.454-4.458 7.748-2.345 2.51-4.993 4.12-8.19 4.977-1.798.482-5.837.622-7.595.263z"/></svg>